HIERARCHY
ROOT Hips
{
	OFFSET -0.001795 -0.223333 0.028219
	CHANNELS 6 Xposition Yposition Zposition Zrotation Yrotation Xrotation 
	JOINT LeftUpLeg
	{
		OFFSET 0.069520 -0.091406 -0.006815
		CHANNELS 3 Zrotation Yrotation Xrotation
		JOINT LeftLeg
		{
			OFFSET 0.034277 -0.375199 -0.004496
			CHANNELS 3 Zrotation Yrotation Xrotation
			JOINT LeftFoot
			{
				OFFSET -0.013596 -0.397961 -0.043693
				CHANNELS 3 Zrotation Yrotation Xrotation
				JOINT LeftToe
				{
					OFFSET 0.026358 -0.055791 0.119288
					CHANNELS 3 Zrotation Yrotation Xrotation
					End Site
					{
						OFFSET 0.000000 0.000000 0.000000
					}
				}
			}
		}
	}
	JOINT RightUpLeg
	{
		OFFSET -0.067670 -0.090522 -0.004320
		CHANNELS 3 Zrotation Yrotation Xrotation
		JOINT RightLeg
		{
			OFFSET -0.038290 -0.382569 -0.008850
			CHANNELS 3 Zrotation Yrotation Xrotation
			JOINT RightFoot
			{
				OFFSET 0.015774 -0.398415 -0.042312
				CHANNELS 3 Zrotation Yrotation Xrotation
				JOINT RightToe
				{
					OFFSET -0.025372 -0.048144 0.123348
					CHANNELS 3 Zrotation Yrotation Xrotation
					End Site
					{
						OFFSET 0.000000 0.000000 0.000000
					}
				}
			}
		}
	}
	JOINT Spine
	{
		OFFSET -0.002533 0.108963 -0.026696
		CHANNELS 3 Zrotation Yrotation Xrotation
		JOINT Spine1
		{
			OFFSET 0.005487 0.135180 0.001092
			CHANNELS 3 Zrotation Yrotation Xrotation
			JOINT Spine2
			{
				OFFSET 0.001457 0.052922 0.025425
				CHANNELS 3 Zrotation Yrotation Xrotation
				JOINT Neck
				{
					OFFSET -0.002778 0.213870 -0.042857
					CHANNELS 3 Zrotation Yrotation Xrotation
					JOINT Head
					{
						OFFSET 0.005152 0.064970 0.051349
						CHANNELS 3 Zrotation Yrotation Xrotation
						End Site
						{
							OFFSET 0.000000 0.000000 0.000000
						}
					}
				}
				JOINT LeftShoulder
				{
					OFFSET 0.078845 0.121749 -0.034090
					CHANNELS 3 Zrotation Yrotation Xrotation
					JOINT LeftArm
					{
						OFFSET 0.090977 0.030469 -0.008868
						CHANNELS 3 Zrotation Yrotation Xrotation
						JOINT LeftForeArm
						{
							OFFSET 0.259612 -0.012772 -0.027456
							CHANNELS 3 Zrotation Yrotation Xrotation
							JOINT LeftHand
							{
								OFFSET 0.249234 0.008986 -0.001171
								CHANNELS 3 Zrotation Yrotation Xrotation
								End Site
								{
									OFFSET 0.000000 0.000000 0.000000
								}
							}
						}
					}
				}
				JOINT RightShoulder
				{
					OFFSET -0.081759 0.118833 -0.038615
					CHANNELS 3 Zrotation Yrotation Xrotation
					JOINT RightArm
					{
						OFFSET -0.096012 0.032551 -0.009143
						CHANNELS 3 Zrotation Yrotation Xrotation
						JOINT RightForeArm
						{
							OFFSET -0.253742 -0.013329 -0.021401
							CHANNELS 3 Zrotation Yrotation Xrotation
							JOINT RightHand
							{
								OFFSET -0.255298 0.007772 -0.005559
								CHANNELS 3 Zrotation Yrotation Xrotation
								End Site
								{
									OFFSET 0.000000 0.000000 0.000000
								}
							}
						}
					}
				}
			}
		}
	}
}
MOTION
Frames: 14
Frame Time: 0.050000
-1.295585 0.911583 1.690173 -10.155134 21.094346 -6.181662 5.741597 -0.521446 -6.301237 -3.404088 -7.880721 58.577840 -4.952116 -2.242590 11.813365 0.000000 0.000000 0.000000 4.376627 1.718323 -14.093338 -6.373688 1.503285 23.873984 9.493443 22.068860 1.322457 0.000000 0.000000 0.000000 10.131566 -1.775635 10.689729 0.013039 -0.094342 0.920212 -0.856653 5.694623 4.140329 1.199149 -0.061188 -3.298018 0.000000 0.000000 0.000000 -29.035992 5.293583 -12.490014 -44.139102 1.926264 -4.265369 -17.236285 -25.992870 3.881331 0.000000 0.000000 0.000000 24.617949 -13.134603 -5.640389 48.622720 5.114523 -3.843336 8.796981 22.126455 3.065943 0.000000 0.000000 0.000000 
-1.289376 0.919161 1.721520 -8.958631 25.464198 -6.917915 8.065808 -0.988794 -13.554975 -16.251417 -1.438249 63.362536 5.676672 13.943931 8.932821 0.000000 0.000000 0.000000 2.838508 1.115052 -9.485094 -5.557520 0.946805 22.486431 8.288282 19.852302 0.248186 0.000000 0.000000 0.000000 8.609105 -1.942527 12.480715 0.311033 -0.129240 -0.097796 -1.505945 8.722649 3.895959 2.637632 -0.598795 -4.748952 0.000000 0.000000 0.000000 -27.857641 3.008579 -12.628925 -43.436491 4.501424 -4.617732 -15.333981 -24.055118 2.935822 0.000000 0.000000 0.000000 25.804705 -12.353525 -3.524670 46.835402 7.480360 -3.574174 7.738880 23.316327 3.252368 0.000000 0.000000 0.000000 
-1.275220 0.924608 1.749707 -7.512814 29.765418 -6.873084 9.703070 -1.573732 -19.591881 -23.531569 2.067418 58.530400 10.464925 21.346783 5.126434 0.000000 0.000000 0.000000 0.885398 0.514479 -4.935560 -4.540570 0.469623 20.235697 6.899013 16.924764 -0.601632 0.000000 0.000000 0.000000 7.239250 -1.881494 12.885433 0.673591 -0.380546 0.363810 -2.324060 11.673024 3.594608 4.419859 -2.096670 -3.694905 0.000000 0.000000 0.000000 -26.785422 2.269048 -13.402141 -43.046830 5.817379 -4.769661 -14.466111 -22.875451 2.430685 0.000000 0.000000 0.000000 26.138634 -11.000343 -1.078897 45.161160 9.934859 -3.149106 5.484453 24.643175 3.101072 0.000000 0.000000 0.000000 
-1.254071 0.927001 1.775336 -6.380293 33.943645 -7.226780 10.754251 -2.138765 -23.461812 -21.243893 0.652980 45.557975 10.265039 22.763904 15.346434 0.000000 0.000000 0.000000 -1.323206 -0.145656 -0.137564 -3.073480 -0.018156 17.839554 6.218730 14.939790 0.082863 0.000000 0.000000 0.000000 6.800334 -2.018870 13.671661 0.880684 -0.604763 1.008845 -4.079985 14.226586 2.480160 6.006732 -2.802836 -4.875951 0.000000 0.000000 0.000000 -25.302799 1.571037 -13.752566 -42.994244 7.248962 -5.118458 -12.907651 -23.433744 1.955889 0.000000 0.000000 0.000000 27.036091 -10.965402 0.391519 42.745608 12.102893 -2.850162 4.262495 25.959185 3.111254 0.000000 0.000000 0.000000 
-1.226527 0.925528 1.798699 -5.853043 37.601852 -7.171047 11.619420 -2.412423 -24.343443 -10.271973 -1.254882 27.510556 4.303877 19.069219 26.085980 0.000000 0.000000 0.000000 -1.816756 -0.751884 4.422983 -3.166429 0.072263 15.317385 4.553262 11.107580 -0.498274 0.000000 0.000000 0.000000 7.267592 -2.087588 13.305033 0.282889 -0.332277 0.871283 -4.343979 16.129460 2.692417 6.666723 -3.017514 -5.283239 0.000000 0.000000 0.000000 -25.401674 1.936615 -15.218348 -41.549563 8.834719 -5.223357 -13.308671 -23.129667 1.885160 0.000000 0.000000 0.000000 26.791107 -11.518556 1.134234 42.388795 12.860913 -2.906645 3.919337 26.942374 3.347762 0.000000 0.000000 0.000000 
-1.192951 0.920603 1.819712 -6.406414 42.230724 -7.857628 12.491980 -2.571302 -23.946663 -3.710282 -0.862332 13.977237 2.358111 17.942791 27.363185 0.000000 0.000000 0.000000 -2.411986 -1.502153 8.620399 -3.052030 0.025740 13.610731 4.571338 10.821093 0.831102 0.000000 0.000000 0.000000 7.450573 -2.143930 13.042273 0.689675 -0.561183 0.788036 -4.782630 17.447083 2.672708 7.190839 -3.244165 -5.448174 0.000000 0.000000 0.000000 -25.848106 1.238692 -16.369250 -40.921247 10.948096 -5.568936 -13.308519 -23.519894 1.794972 0.000000 0.000000 0.000000 27.465852 -11.243136 2.608677 41.113235 13.603998 -3.032661 4.377267 27.509086 3.513950 0.000000 0.000000 0.000000 
-1.152669 0.914592 1.838537 -6.402746 45.798334 -8.179896 12.046206 -2.664316 -23.156143 -1.790246 -0.542239 8.652611 2.111322 17.077787 24.220474 0.000000 0.000000 0.000000 -2.703556 -2.340739 12.442087 -3.862302 0.161773 13.427767 3.601098 8.444559 1.492887 0.000000 0.000000 0.000000 6.318284 -1.960012 12.812939 2.090757 -1.109903 0.035381 -4.420695 18.160171 3.441236 7.063937 -2.149991 -7.502237 0.000000 0.000000 0.000000 -25.498278 1.372016 -17.235440 -42.442308 12.271311 -6.312719 -13.242741 -21.909202 1.500454 0.000000 0.000000 0.000000 27.203024 -11.300620 3.380636 40.869683 15.010085 -2.785617 2.365581 27.456671 3.070318 0.000000 0.000000 0.000000 
-1.104159 0.907649 1.855342 -6.434826 48.990563 -8.675407 10.248879 -2.756134 -22.399514 -2.227363 -0.748314 10.374414 1.704302 15.209564 19.258228 0.000000 0.000000 0.000000 -2.272280 -3.132062 15.284898 -6.828995 0.598568 15.825216 3.309747 7.717949 3.446581 0.000000 0.000000 0.000000 5.719168 -1.840155 12.520968 1.221370 -0.600068 -0.606934 -2.805994 19.282162 4.333809 8.242600 -2.927027 -7.326763 0.000000 0.000000 0.000000 -26.811535 0.334058 -18.766204 -41.127548 13.947524 -6.168314 -11.698775 -21.259019 1.167235 0.000000 0.000000 0.000000 26.574767 -12.255590 3.212280 42.856920 14.110471 -2.820958 1.970596 27.789874 3.107440 0.000000 0.000000 0.000000 
-1.047745 0.903489 1.869698 -6.246956 53.296615 -9.571216 7.245533 -2.744216 -21.115556 -3.581926 -1.323621 14.669020 1.754919 13.104435 14.192572 0.000000 0.000000 0.000000 -3.526309 -3.937107 17.618737 -8.570258 0.248559 20.328525 4.998047 10.942203 9.844155 0.000000 0.000000 0.000000 4.667474 -1.727450 12.542477 2.911844 -1.313780 -1.047004 -3.837395 19.668508 5.275841 10.124146 -4.084975 -7.630551 0.000000 0.000000 0.000000 -27.477142 -1.137446 -19.659096 -40.849726 14.285725 -5.878804 -9.700686 -19.700792 0.735552 0.000000 0.000000 0.000000 28.356100 -14.154782 3.135918 42.242285 14.717991 -3.128597 2.251645 27.834477 3.201058 0.000000 0.000000 0.000000 
-0.988703 0.905000 1.882024 -5.508881 56.581154 -9.104578 3.881818 -2.454643 -18.866859 -3.796280 -1.805411 16.889283 2.498602 10.424775 8.347259 0.000000 0.000000 0.000000 -3.760905 -3.401638 15.130626 -13.329950 -0.922419 30.900253 10.040212 16.790524 19.456701 0.000000 0.000000 0.000000 3.591102 -1.345498 11.216824 3.771420 -1.874540 -0.657630 -3.784399 19.898131 5.114920 10.315052 -5.236651 -5.718090 0.000000 0.000000 0.000000 -28.555312 -2.214401 -20.877910 -40.110042 15.399789 -5.595380 -10.396313 -19.216216 0.815815 0.000000 0.000000 0.000000 27.015419 -14.868118 2.707301 45.200053 11.681788 -3.541633 2.609553 28.618267 3.578796 0.000000 0.000000 0.000000 
-0.934117 0.909743 1.893697 -4.104753 59.421380 -8.810866 0.715256 -1.736065 -14.837866 -3.575341 -2.063423 17.524575 2.590639 7.441976 4.630738 0.000000 0.000000 0.000000 -3.800783 -2.040352 8.661637 -21.614604 -2.917883 46.067791 18.531570 20.200971 33.234445 0.000000 0.000000 0.000000 2.419785 -1.520146 12.749453 3.686189 -1.590322 -1.644673 -3.206984 18.304949 5.106288 10.570376 -5.088193 -6.383722 0.000000 0.000000 0.000000 -27.498593 -1.721515 -20.277206 -41.588857 14.353745 -5.883860 -12.572543 -19.541484 1.124302 0.000000 0.000000 0.000000 25.536156 -15.844223 1.251660 48.768818 9.132269 -3.532743 3.519314 29.893519 4.240916 0.000000 0.000000 0.000000 
-0.886107 0.916925 1.906183 -3.955021 62.270836 -9.826695 -1.527278 -0.752377 -8.922863 -1.807937 -1.791208 14.890482 1.644550 3.426848 2.260469 0.000000 0.000000 0.000000 -1.044713 -0.590160 0.722903 -32.135330 -3.310706 59.382582 23.181392 18.729725 42.090507 0.000000 0.000000 0.000000 1.926127 -1.839023 14.392169 4.095886 -1.601234 -2.348146 -3.635436 15.653199 5.559804 9.419157 -4.355018 -6.138117 0.000000 0.000000 0.000000 -27.281805 -2.377835 -19.454950 -41.379708 12.193162 -5.157620 -13.354501 -20.444768 1.335952 0.000000 0.000000 0.000000 25.408957 -15.750073 1.174934 50.542187 8.828487 -3.589548 4.853848 28.250169 4.208736 0.000000 0.000000 0.000000 
-0.842625 0.926419 1.920426 -6.265286 65.031324 -13.061983 -1.426193 -0.202782 -3.429121 -1.013216 -1.448399 12.541048 -0.154005 0.131584 1.990653 0.000000 0.000000 0.000000 2.033367 0.316648 -5.790505 -36.065801 -4.005410 65.543426 21.943002 17.247195 41.405875 0.000000 0.000000 0.000000 2.264640 -2.342318 16.055131 4.674987 -1.711283 -2.890974 -4.227429 13.264775 5.770632 9.037297 -5.115157 -4.292437 0.000000 0.000000 0.000000 -27.429142 -3.282377 -18.709948 -40.738606 9.799966 -4.173093 -13.904667 -21.488272 1.575016 0.000000 0.000000 0.000000 24.464058 -14.549618 1.448887 52.613970 6.972743 -3.789055 5.861900 28.487614 4.392754 0.000000 0.000000 0.000000 
-0.801207 0.935670 1.935483 -8.885529 67.642043 -15.868812 -1.220318 -0.152960 1.403029 0.155654 -1.039812 9.580928 -2.410656 -2.424266 2.910046 0.000000 0.000000 0.000000 4.650039 0.729731 -11.413238 -32.924572 -6.638212 64.913531 16.157379 21.614992 21.713759 0.000000 0.000000 0.000000 2.893659 -2.748943 16.901993 5.376099 -1.774585 -3.790786 -4.965375 10.608975 6.286194 8.708877 -5.061724 -3.851778 0.000000 0.000000 0.000000 -26.555777 -3.383957 -17.749831 -40.852394 6.899013 -3.449173 -15.151037 -23.415424 1.942549 0.000000 0.000000 0.000000 24.362608 -14.246433 1.510709 53.528366 5.993147 -4.140628 7.223244 27.899099 4.582934 0.000000 0.000000 0.000000 
